<?xml version="1.0" standalone="no"?><!DOCTYPE svg PUBLIC "-//W3C//DTD SVG 1.1//EN" "http://www.w3.org/Graphics/SVG/1.1/DTD/svg11.dtd"><svg t="1622032124209" class="icon" viewBox="0 0 1024 1024" version="1.1" xmlns="http://www.w3.org/2000/svg" p-id="1956" xmlns:xlink="http://www.w3.org/1999/xlink" width="32" height="32"><defs><style type="text/css"></style></defs><path d="M381.354391 13.454498C418.293506-0.740108 459.684315-2.982524 497.97109 7.025502 548.49726 19.927681 592.749083 54.734844 617.636591 100.522114c63.284746 0.011046 126.569493-0.011046 189.85424 0.011047 16.392837-0.066278 32.697303 6.252255 44.737864 17.387012 13.598101 12.316721 21.639871 30.499072 21.529406 48.869212 0.011046 132.346753 0.022093 264.693506 0 397.040259-65.140539-27.339806-141.614671-26.025286-205.694757 3.766818-32.929277 15.155642-62.566731 37.41411-86.349601 64.776008-25.627616 29.383387-44.428565 64.698684-54.370313 102.411047-11.874865 44.726818-11.333592 92.668134 1.535448 137.129838 17.409105 61.04233 58.678403 114.705674 112.883021 147.657044-183.370011 0.022093-366.728975 0.011046-550.098986 0.011047-16.889924 0.055232-33.669385-6.672017-45.809364-18.414326C33.724617 989.700971 26.467141 973.540108 25.406688 956.926343V163.309773c0.718015-9.555124 3.126127-19.032923 7.688285-27.483408 11.068479-21.385804 34.531003-35.591456 58.645264-35.293204 63.351025-0.022093 126.691003 0 190.042028-0.011047 21.562546-39.546063 57.452255-71.03931 99.572126-87.067616m33.293807 35.812384c-31.404876 7.599914-59.992923 25.959008-80.097346 51.244186 76.772384 0.022093 153.544768 0.022093 230.306106 0-15.641683-19.618382-36.342611-35.18274-59.617346-44.605307-28.510723-11.653937-60.688846-13.995771-90.591414-6.638879M69.614326 166.756246c-0.033139 262.17493-0.033139 524.360906-0.011047 786.546882-0.309299 11.808587 10.317325 22.402071 22.125912 22.081726 146.198921 0.022093 292.397843 0.011046 438.596764 0-18.513743-25.870636-32.851953-54.734844-42.241381-85.134498-15.056224-48.758749-17.552708-101.350593-7.102826-151.302352 7.88712-37.800734 23.252643-74.010787 44.859374-106.012168 36.585631-54.436591 91.353614-96.434951 153.577907-117.257389 48.062826-16.271327 100.257001-19.828263 150.153528-10.770227 0.011046-112.717325 0.033139-225.434649 0-338.151974 0.287206-11.764401-10.273139-22.291607-22.015448-22.026494-238.635081-0.033139-477.281208-0.033139-715.916289 0-11.753355-0.287206-22.3137 10.262093-22.026494 22.026494z" p-id="1957"></path><path d="M171.671888 263.48945c6.981316-1.855793 14.746926-0.530227 20.656742 3.656354 7.158058 4.882503 11.377778 13.741704 10.626624 22.391024-0.51918 7.688285-4.904595 14.967853-11.399871 19.099202-6.926084 4.529018-16.13877 5.213894-23.672406 1.800561-8.295836-3.612168-14.216699-12.029515-14.724832-21.076505-1.060453-11.609752 7.224337-23.086947 18.513743-25.870636zM284.278749 265.621402c1.690097-0.408716 3.435426-0.541273 5.169708-0.574412 134.003711-0.011046 268.018468 0 402.022179-0.011046 4.396462 0.011046 8.969666-0.320345 13.1452 1.336613 9.731866 3.358101 16.083538 14.139374 14.194606 24.291003-1.502309 10.836505-12.018468 19.198619-22.899158 18.557929-135.141489 0.011046-270.282977 0.011046-405.424466 0-6.649924 0.209881-13.377174-2.518576-17.718404-7.61096-5.434822-6.086559-6.948177-15.299245-3.822049-22.821834 2.606947-6.517368 8.505717-11.576613 15.332384-13.167293zM171.638749 428.09165c7.235383-1.944164 15.332384-0.441855 21.319525 4.09821 7.102826 5.169709 11.057433 14.338209 9.886516 23.064854-0.883711 7.787702-5.733074 14.956807-12.581834 18.756764-7.235383 4.120302-16.558533 4.230766-23.90438 0.27616-8.163279-4.230766-13.520777-13.26671-13.26671-22.46835-0.011046-10.891737 8.00863-21.076505 18.546883-23.727638zM284.256656 431.328242c1.701143-0.419763 3.468565-0.563366 5.224941-0.596505 83.179288 0 166.358576 0.011046 249.537864 0 7.754563-0.27616 15.431802 3.888328 19.419547 10.538252 4.473786 7.135965 4.285998 16.856785-0.474995 23.804962-4.087163 6.208069-11.43301 9.985933-18.845135 9.831284-82.869989 0.033139-165.739978 0.011046-248.609968 0.011047-6.41795 0.198835-12.902179-2.297648-17.243408-7.069688-5.611564-5.865631-7.445264-14.956807-4.61739-22.567767 2.430205-6.870852 8.505717-12.294628 15.608544-13.951585zM171.660841 571.694671c7.003409-1.877886 14.802157-0.541273 20.711975 3.678447 7.135965 4.882503 11.322546 13.708565 10.593484 22.335792-0.530227 7.699331-4.915642 15.000992-11.43301 19.143388-7.147012 4.661575-16.735275 5.224941-24.379374 1.43603-7.931305-3.766818-13.50973-11.974283-13.995771-20.745113-1.049407-11.598706 7.21329-23.064854 18.502696-25.848544zM284.267702 573.815577c3.490658-0.817433 7.113873-0.563366 10.670809-0.585458 44.185545 0.011046 88.37109-0.011046 132.556635 0.011046 7.666192-0.011046 15.089364 4.396462 18.845134 11.057433 4.06507 6.926084 3.866235 16.061446-0.486041 22.799741-4.076117 6.561553-11.731262 10.549299-19.430593 10.306278-45.30123 0.022093-90.591413 0.011046-135.892643 0.011046-6.41795 0.209881-12.913225-2.297648-17.265501-7.069687-5.611564-5.865631-7.445264-14.956807-4.61739-22.55672 2.430205-6.892945 8.505717-12.316721 15.61959-13.973679zM749.50835 579.681208c42.605912-4.970874 86.603668 2.496483 125.000906 21.684056 33.768803 16.801553 63.163236 42.318706 84.5159 73.414283 18.193398 26.37877 30.565351 56.734239 35.933895 88.326904 8.726645 50.481985-0.508134 103.913355-26.146796 148.308781-20.038145 35.028091-49.786063 64.444617-85.06822 84.02986-51.266278 28.952578-114.241726 35.812384-170.677714 19.242804-53.287767-15.387616-100.124444-51.586624-128.568888-99.196548-21.728242-35.955987-32.796721-78.197368-31.647897-120.195728 0.905804-41.23616 13.642287-82.107789 36.353657-116.528328 22.457303-34.299029 54.580194-62.158015 91.696052-79.567119 21.639871-10.096397 44.870421-16.8126 68.609105-19.518965m18.61316 42.826839c-36.464121 1.380798-72.309644 14.437627-101.184897 36.718188-30.576397 23.407292-53.331953 56.888889-63.538814 94.037886-11.002201 39.457691-7.842934 82.693247 8.936527 120.085264 15.210874 34.14438 41.401855 63.317886 73.800906 81.986278 30.421748 17.806775 66.267271 26.080518 101.416872 23.595081 27.339806-1.756375 54.237756-10.041165 77.843883-23.959611 38.772816-22.523581 68.487594-60.180712 81.168846-103.217433 11.101618-37.115858 9.665588-77.85493-4.153441-114.053937-12.891133-34.166472-36.640863-64.057994-66.841683-84.54904-31.305458-21.418943-69.57014-32.288587-107.448199-30.642676z" p-id="1958"></path><path d="M867.572125 720.544725c7.279569-7.401079 20.148608-7.931305 28.013636-1.148824 5.611564 4.418554 9.588263 11.256268 9.146407 18.568975-0.187789 5.423776-2.62904 10.659763-6.528414 14.415534-35.712967 35.724013-71.43698 71.425933-107.1389 107.149946-7.776656 7.677238-15.255059 15.696915-23.705544 22.656138-6.17493 4.606343-14.956807 5.25808-21.783474 1.745329-3.866235-1.888932-6.683064-5.235987-9.687681-8.185372-27.615965-27.615965-55.231931-55.220885-82.83685-82.847897-3.82205-3.700539-6.208069-8.848155-6.41795-14.172513-0.773247-13.410313 12.791715-25.793312 26.124703-23.186365 4.959827 0.773247 9.334196 3.634261 12.703344 7.279569 23.285782 23.318921 46.593657 46.604703 69.901532 69.901532 37.41411-37.369924 74.772988-74.806127 112.209191-112.176052zM171.738166 735.159094c6.981316-1.844746 14.746926-0.497087 20.645696 3.700539 7.124919 4.893549 11.311499 13.708565 10.571392 22.324747-0.497087 7.434218-4.58425 14.492859-10.737088 18.690485-6.981316 4.904595-16.547487 5.77726-24.313096 2.253463-8.295836-3.612168-14.227745-12.018468-14.746925-21.054412-1.071499-11.642891 7.246429-23.153225 18.580021-25.914822zM284.234563 737.313139c2.065674-0.508134 4.197627-0.596505 6.329579-0.607551 32.023474 0.033139 64.057994 0.011046 96.092514 0.011046 4.407508 0.022093 8.980712-0.342438 13.178339 1.270335 7.566775 2.595901 13.344035 9.632449 14.437626 17.563754 1.270334 7.931305-2.275556 16.381791-8.815016 21.054412-4.120302 3.092988-9.32315 4.440647-14.42658 4.297044-31.669989 0-63.328932 0-94.987875 0.011046-4.992967-0.044186-10.195814 0.375577-14.901575-1.645911-8.52781-3.347055-14.382395-12.382999-13.774844-21.5515 0.27616-9.555124 7.555728-18.292816 16.867832-20.402675z" p-id="1959"></path></svg>