<?xml version="1.0" standalone="no"?><!DOCTYPE svg PUBLIC "-//W3C//DTD SVG 1.1//EN" "http://www.w3.org/Graphics/SVG/1.1/DTD/svg11.dtd"><svg t="1622032152854" class="icon" viewBox="0 0 1024 1024" version="1.1" xmlns="http://www.w3.org/2000/svg" p-id="2487" xmlns:xlink="http://www.w3.org/1999/xlink" width="32" height="32"><defs><style type="text/css"></style></defs><path d="M284.744171 522.104239a49.152 49.152 0 1 0 71.568855-67.391212 49.152 49.152 0 1 0-71.568855 67.391212Z" fill="#BBBBBB" p-id="2488"></path><path d="M460.109336 360.355443a49.152 49.152 0 1 0 71.568854-67.391212 49.152 49.152 0 1 0-71.568854 67.391212Z" fill="#BBBBBB" p-id="2489"></path><path d="M978.944 917.504l-176.128-176.128c-12.288-12.288-36.864-12.288-57.344 0l-4.096 4.096c-12.288 12.288-12.288 36.864 0 57.344l176.128 176.128c12.288 12.288 36.864 12.288 57.344 0l4.096-4.096c12.288-20.48 12.288-45.056 0-57.344zM573.44 421.888c-8.192 8.192-8.192 20.48 0 28.672 12.288 12.288 20.48 28.672 20.48 53.248 0 16.384-8.192 32.768-20.48 53.248-24.576 24.576-73.728 24.576-98.304 0-8.192-8.192-20.48-8.192-28.672 0s-8.192 20.48 0 28.672c20.48 20.48 53.248 32.768 81.92 32.768s57.344-12.288 81.92-32.768c20.48-20.48 32.768-53.248 32.768-81.92s-12.288-61.44-32.768-81.92c-16.384-8.192-28.672-8.192-36.864 0z" fill="#BBBBBB" p-id="2490"></path><path d="M950.272 577.536c8.192-32.768 0-73.728-24.576-98.304l-118.784-131.072c-4.096-4.096-8.192-12.288-8.192-20.48l-8.192-180.224c0-32.768-20.48-65.536-49.152-86.016-28.672-16.384-65.536-20.48-98.304-8.192l-155.648 65.536c-4.096 4.096-12.288 4.096-20.48 0l-192.512-40.96c-32.768-8.192-65.536 0-90.112 24.576-28.672 24.576-40.96 53.248-36.864 86.016l12.288 188.416c0 8.192 0 12.288-4.096 20.48l-90.112 155.648c-24.576 28.672-24.576 61.44-8.192 98.304 12.288 28.672 45.056 57.344 73.728 61.44l176.128 36.864c8.192 0 12.288 4.096 16.384 12.288l114.688 139.264c20.48 24.576 53.248 36.864 81.92 36.864h12.288c32.768-4.096 65.536-24.576 81.92-57.344l86.016-155.648c4.096-8.192 8.192-12.288 16.384-16.384l163.84-61.44c36.864-8.192 61.44-36.864 69.632-69.632z m-69.632-20.48c-4.096 12.288-8.192 20.48-20.48 20.48l-163.84 61.44c-24.576 8.192-49.152 24.576-57.344 53.248l-86.016 155.648c-4.096 8.192-12.288 16.384-24.576 16.384s-20.48-4.096-28.672-12.288l-114.688-139.264c-12.288-16.384-32.768-28.672-61.44-32.768l-176.128-36.864c-8.192-4.096-16.384-8.192-24.576-20.48-4.096-8.192-4.096-20.48 0-28.672l90.112-155.648c16.384-12.288 20.48-32.768 16.384-57.344l-12.288-196.608c0-8.192 4.096-20.48 12.288-24.576 8.192-8.192 16.384-12.288 24.576-12.288h8.192l192.512 36.864c20.48 4.096 45.056 4.096 61.44-4.096l155.648-65.536c8.192-4.096 20.48-4.096 28.672 4.096 8.192 8.192 16.384 16.384 16.384 24.576l8.192 184.32c0 24.576 12.288 49.152 24.576 65.536l118.784 131.072c12.288 8.192 12.288 20.48 12.288 32.768z" fill="#BBBBBB" p-id="2491"></path></svg>